<?xml version="1.0" encoding="UTF-8"?>
<!--Generator: Apple Native CoreSVG 326-->
<!DOCTYPE svg
PUBLIC "-//W3C//DTD SVG 1.1//EN"
       "http://www.w3.org/Graphics/SVG/1.1/DTD/svg11.dtd">
<svg version="1.1" xmlns="http://www.w3.org/2000/svg" xmlns:xlink="http://www.w3.org/1999/xlink" viewBox="0 0 13.0635 12.585">
 <g>
  <rect height="12.585" opacity="0" width="13.0635" x="0" y="0"/>
  <path d="M2.14648 12.585L10.4385 12.585C11.874 12.585 12.585 11.8809 12.585 10.4727L12.585 2.11914C12.585 0.710938 11.874 0 10.4385 0L2.14648 0C0.717773 0 0 0.710938 0 2.11914L0 10.4727C0 11.8809 0.717773 12.585 2.14648 12.585ZM2.16016 11.4844C1.47656 11.4844 1.10059 11.1221 1.10059 10.4111L1.10059 2.18066C1.10059 1.46973 1.47656 1.10059 2.16016 1.10059L10.4248 1.10059C11.1016 1.10059 11.4844 1.46973 11.4844 2.18066L11.4844 10.4111C11.4844 11.1221 11.1016 11.4844 10.4248 11.4844Z" fill="white" fill-opacity="0.85"/>
  <path d="M8.43555 7.98438C8.73633 7.98438 8.94141 7.75195 8.94141 7.4375L8.94141 4.21094C8.94141 3.80762 8.71582 3.65039 8.36719 3.65039L5.12695 3.65039C4.80566 3.65039 4.60059 3.84863 4.60059 4.14941C4.60059 4.4502 4.8125 4.64844 5.14062 4.64844L6.38477 4.64844L7.39648 4.53906L6.33008 5.53027L3.80762 8.05273C3.71191 8.14844 3.65039 8.28516 3.65039 8.42188C3.65039 8.72949 3.84863 8.92773 4.14941 8.92773C4.31348 8.92773 4.44336 8.86621 4.53906 8.77051L7.05469 6.25488L8.03906 5.20215L7.93652 6.26855L7.93652 7.45117C7.93652 7.77246 8.13477 7.98438 8.43555 7.98438Z" fill="white" fill-opacity="0.85"/>
 </g>
</svg>
