<?xml version="1.0" encoding="UTF-8"?>
<!--Generator: Apple Native CoreSVG 326-->
<!DOCTYPE svg
PUBLIC "-//W3C//DTD SVG 1.1//EN"
       "http://www.w3.org/Graphics/SVG/1.1/DTD/svg11.dtd">
<svg version="1.1" xmlns="http://www.w3.org/2000/svg" xmlns:xlink="http://www.w3.org/1999/xlink" viewBox="0 0 11.7578 11.2861">
 <g>
  <rect height="11.2861" opacity="0" width="11.7578" x="0" y="0"/>
  <path d="M0 5.63965C0 5.97461 0.280273 6.24805 0.608398 6.24805L5.03125 6.24805L5.03125 10.6709C5.03125 10.999 5.30469 11.2793 5.63965 11.2793C5.97461 11.2793 6.25488 10.999 6.25488 10.6709L6.25488 6.24805L10.6709 6.24805C10.999 6.24805 11.2793 5.97461 11.2793 5.63965C11.2793 5.30469 10.999 5.02441 10.6709 5.02441L6.25488 5.02441L6.25488 0.608398C6.25488 0.280273 5.97461 0 5.63965 0C5.30469 0 5.03125 0.280273 5.03125 0.608398L5.03125 5.02441L0.608398 5.02441C0.280273 5.02441 0 5.30469 0 5.63965Z" fill="white" fill-opacity="0.85"/>
 </g>
</svg>
