<?xml version="1.0" encoding="UTF-8"?>
<!--Generator: Apple Native CoreSVG 326-->
<!DOCTYPE svg
PUBLIC "-//W3C//DTD SVG 1.1//EN"
       "http://www.w3.org/Graphics/SVG/1.1/DTD/svg11.dtd">
<svg version="1.1" xmlns="http://www.w3.org/2000/svg" xmlns:xlink="http://www.w3.org/1999/xlink" viewBox="0 0 12.6123 17.3018">
 <g>
  <rect height="17.3018" opacity="0" width="12.6123" x="0" y="0"/>
  <path d="M12.1338 7.11621L12.1338 13.8633C12.1338 15.2715 11.416 15.9824 9.9873 15.9824L2.14648 15.9824C0.717773 15.9824 0 15.2783 0 13.8633L0 7.11621C0 5.70117 0.724609 4.99707 2.14648 4.99707L4.23828 4.99707L4.23828 6.09766L2.16699 6.09766C1.4834 6.09766 1.10059 6.45996 1.10059 7.1709L1.10059 13.8086C1.10059 14.5195 1.47656 14.8818 2.16016 14.8818L9.9668 14.8818C10.6436 14.8818 11.0332 14.5195 11.0332 13.8086L11.0332 7.1709C11.0332 6.45996 10.6436 6.09766 9.9668 6.09766L7.88867 6.09766L7.88867 4.99707L9.9873 4.99707C11.416 4.99707 12.1338 5.70801 12.1338 7.11621Z" fill="white" fill-opacity="0.85"/>
  <path d="M6.07031 1.36035C5.77637 1.36035 5.52344 1.59961 5.52344 1.88672L5.52344 8.83887L5.56445 9.86426L5.18164 9.46094L4.12207 8.33301C4.02637 8.22363 3.88281 8.16895 3.74609 8.16895C3.45898 8.16895 3.25391 8.36719 3.25391 8.64746C3.25391 8.79785 3.31543 8.90723 3.41797 9.00977L5.67383 11.1836C5.81055 11.3203 5.92676 11.3613 6.07031 11.3613C6.20703 11.3613 6.32324 11.3203 6.45996 11.1836L8.71582 9.00977C8.81836 8.90723 8.87988 8.79785 8.87988 8.64746C8.87988 8.36719 8.66113 8.16895 8.38086 8.16895C8.24414 8.16895 8.10742 8.22363 8.01172 8.33301L6.95215 9.46094L6.56934 9.86426L6.61035 8.83887L6.61035 1.88672C6.61035 1.59961 6.36426 1.36035 6.07031 1.36035Z" fill="white" fill-opacity="0.85"/>
 </g>
</svg>
