<?xml version="1.0" encoding="UTF-8"?>
<!--Generator: Apple Native CoreSVG 326-->
<!DOCTYPE svg
PUBLIC "-//W3C//DTD SVG 1.1//EN"
       "http://www.w3.org/Graphics/SVG/1.1/DTD/svg11.dtd">
<svg version="1.1" xmlns="http://www.w3.org/2000/svg" xmlns:xlink="http://www.w3.org/1999/xlink" viewBox="0 0 14.4238 13.9521">
 <g>
  <rect height="13.9521" opacity="0" width="14.4238" x="0" y="0"/>
  <path d="M6.97266 13.9453C10.8213 13.9453 13.9453 10.8213 13.9453 6.97266C13.9453 3.12402 10.8213 0 6.97266 0C3.12402 0 0 3.12402 0 6.97266C0 10.8213 3.12402 13.9453 6.97266 13.9453ZM6.97266 12.7832C3.75977 12.7832 1.16211 10.1855 1.16211 6.97266C1.16211 3.75977 3.75977 1.16211 6.97266 1.16211C10.1855 1.16211 12.7832 3.75977 12.7832 6.97266C12.7832 10.1855 10.1855 12.7832 6.97266 12.7832Z" fill="white" fill-opacity="0.85"/>
  <path d="M4.63477 9.86426C4.79199 9.86426 4.92871 9.80273 5.03125 9.69336L6.96582 7.75195L8.91406 9.69336C9.0166 9.7959 9.14648 9.86426 9.30371 9.86426C9.60449 9.86426 9.85059 9.61816 9.85059 9.31055C9.85059 9.15332 9.7959 9.03027 9.68652 8.9209L7.74512 6.97949L9.69336 5.02441C9.80957 4.9082 9.85742 4.79199 9.85742 4.6416C9.85742 4.34082 9.61133 4.09473 9.31055 4.09473C9.16699 4.09473 9.05078 4.14941 8.93457 4.26562L6.96582 6.21387L5.01758 4.27246C4.91504 4.16309 4.79199 4.1084 4.63477 4.1084C4.33398 4.1084 4.08789 4.34766 4.08789 4.64844C4.08789 4.79883 4.14941 4.92871 4.25195 5.03125L6.19336 6.97949L4.25195 8.92773C4.14941 9.03027 4.08789 9.16016 4.08789 9.31055C4.08789 9.61816 4.33398 9.86426 4.63477 9.86426Z" fill="white" fill-opacity="0.85"/>
 </g>
</svg>
